<?xml version="1.0" encoding="iso-8859-1"?>
<!-- Uploaded to: SVG Repo, www.svgrepo.com, Generator: SVG Repo Mixer Tools -->
<svg height="800px" width="800px" version="1.1" id="Layer_1" xmlns="http://www.w3.org/2000/svg" xmlns:xlink="http://www.w3.org/1999/xlink" 
	 viewBox="0 0 512.001 512.001" xml:space="preserve">
<path style="fill:#74532E;" d="M467.014,144.666v107.996v164.999l-59.058,58.132H277.232h-166.14h-66.57V202.795l0.072,0.069
	l-0.072-2.515l54.657-55.683H467.014z"/>
<path style="fill:#FF4328;" d="M222.609,263.155c0-58.628,47.528-106.157,106.157-106.157s106.157,47.528,106.157,106.157
	s-47.528,106.157-106.157,106.157S222.609,321.783,222.609,263.155z"/>
<path style="fill:#981700;" d="M436.093,262.569c0,58.952-47.79,106.742-106.742,106.742c-57.539,0-104.436-45.528-106.652-102.524
	c2.995,0.228,6.022,0.344,9.075,0.344c62.259,0,113.238-48.27,117.569-109.427C398.738,167.064,436.093,210.451,436.093,262.569z"/>
<path style="fill:#CF8F3D;" d="M138.332,278.262V91.382c0-38.232,31.191-69.512,69.313-69.512h0.006
	c38.121,0,69.313,31.282,69.313,69.512v186.88H138.332z"/>
<g>
	<path style="fill:#B76700;" d="M206.414,91.382v186.88h-68.083V91.382c0-38.232,31.191-69.512,69.313-69.512h0.006
		c12.353,0,23.967,3.3,34.039,9.041C220.677,42.888,206.414,65.539,206.414,91.382z"/>
	<path style="fill:#B76700;" d="M223.7,112.2c-2.356-4.316-0.768-9.726,3.548-12.082l59.058-32.243
		c4.318-2.357,9.726-0.767,12.082,3.548c2.356,4.316,0.768,9.726-3.548,12.082l-59.058,32.243c-1.355,0.74-2.817,1.091-4.259,1.091
		C228.37,116.84,225.317,115.161,223.7,112.2z M298.389,123.516c-2.357-4.316-7.765-5.906-12.082-3.548l-59.058,32.243
		c-4.316,2.356-5.905,7.766-3.548,12.082c1.617,2.962,4.67,4.639,7.824,4.639c1.441,0,2.904-0.351,4.259-1.09l59.058-32.243
		C299.157,133.241,300.745,127.832,298.389,123.516z"/>
</g>
<path style="fill:#7E9332;" d="M397.447,82.058l-46.432,88.319c-1.594,3.031-4.687,4.763-7.889,4.763
	c-1.397,0-2.814-0.329-4.136-1.024c-4.353-2.288-6.027-7.672-3.738-12.025l46.432-88.319c2.288-4.353,7.673-6.026,12.025-3.738
	C398.062,72.321,399.736,77.705,397.447,82.058z"/>
<path style="fill:#AD8A4D;" d="M467.014,144.666v272.995l-59.058,58.132H277.232h-166.14h-66.57V202.795l45.792,43.39l45.788-43.39
	l45.792,43.39l45.786-43.39l45.792,43.39l44.347-42.024l44.349,42.024l45.786-43.39L467.014,144.666z"/>
<path style="fill:#CAA661;" d="M111.092,475.793h-66.57V202.795l45.792,43.39l45.789-43.39l45.792,43.39l45.786-43.39l45.792,43.39
	l44.347-42.024l44.349,42.024l45.786-43.39v272.997H277.232H111.092z"/>
<path style="fill:#AD8A4D;" d="M145.51,475.793V295.208h99.36l18.543,180.585H145.51z"/>
<path style="fill:#CAEEC5;" d="M114.682,295.208h121.621v216.793H114.682V295.208L114.682,295.208z"/>
<path style="fill:#415E5C;" d="M92.632,342.068c0-4.917,3.987-8.904,8.904-8.904h67.463c4.917,0,8.904,3.987,8.904,8.904
	c0,4.917-3.987,8.904-8.904,8.904h-67.463C96.618,350.973,92.632,346.986,92.632,342.068z M101.537,395.792h42.695
	c4.917,0,8.904-3.987,8.904-8.904s-3.987-8.904-8.904-8.904h-42.695c-4.917,0-8.904,3.987-8.904,8.904
	S96.618,395.792,101.537,395.792z M169,422.8h-67.463c-4.917,0-8.904,3.987-8.904,8.904s3.987,8.904,8.904,8.904h67.463
	c4.917,0,8.904-3.987,8.904-8.904C177.904,426.786,173.917,422.8,169,422.8z"/>
<path style="fill:#4A4E34;" d="M363.475,115.092c2.386-22.785,15.304-44.171,36.702-56.524
	c21.396-12.354,46.375-12.847,67.302-3.523c-2.39,22.783-15.305,44.171-36.703,56.525
	C409.38,123.923,384.399,124.415,363.475,115.092L363.475,115.092z"/>
<path style="fill:#7E9332;" d="M365.636,120.094c-18.539-13.459-30.601-35.339-30.601-60.046S347.098,13.461,365.636,0
	c18.535,13.461,30.601,35.34,30.601,60.048C396.237,84.755,384.172,106.635,365.636,120.094L365.636,120.094z"/>
</svg>